<?xml version="1.0" encoding="UTF-8" standalone="no"?>
<svg
   width="15"
   height="15"
   viewBox="0 0 15 15"
   fill="red"
   version="1.1"
   id="svg4"
   sodipodi:docname="questionmark.svg"
   inkscape:version="1.1.2 (0a00cf5339, 2022-02-04)"
   xmlns:inkscape="http://www.inkscape.org/namespaces/inkscape"
   xmlns:sodipodi="http://sodipodi.sourceforge.net/DTD/sodipodi-0.dtd"
   xmlns="http://www.w3.org/2000/svg"
   xmlns:svg="http://www.w3.org/2000/svg">
  <defs
     id="defs8" />
  <sodipodi:namedview
     id="namedview6"
     pagecolor="#ffffff"
     bordercolor="#666666"
     borderopacity="1.0"
     inkscape:pageshadow="2"
     inkscape:pageopacity="0.0"
     inkscape:pagecheckerboard="0"
     showgrid="false"
     inkscape:zoom="52.133333"
     inkscape:cx="7.4904092"
     inkscape:cy="7.4904092"
     inkscape:window-width="2490"
     inkscape:window-height="1016"
     inkscape:window-x="0"
     inkscape:window-y="0"
     inkscape:window-maximized="1"
     inkscape:current-layer="svg4" />
  <path
     d="M5.07505 4.10001C5.07505 2.91103 6.25727 1.92502 7.50005 1.92502C8.74283 1.92502 9.92505 2.91103 9.92505 4.10001C9.92505 5.19861 9.36782 5.71436 8.61854 6.37884L8.58757 6.4063C7.84481 7.06467 6.92505 7.87995 6.92505 9.5C6.92505 9.81757 7.18248 10.075 7.50005 10.075C7.81761 10.075 8.07505 9.81757 8.07505 9.5C8.07505 8.41517 8.62945 7.90623 9.38156 7.23925L9.40238 7.22079C10.1496 6.55829 11.075 5.73775 11.075 4.10001C11.075 2.12757 9.21869 0.775024 7.50005 0.775024C5.7814 0.775024 3.92505 2.12757 3.92505 4.10001C3.92505 4.41758 4.18249 4.67501 4.50005 4.67501C4.81761 4.67501 5.07505 4.41758 5.07505 4.10001ZM7.50005 13.3575C7.9833 13.3575 8.37505 12.9657 8.37505 12.4825C8.37505 11.9992 7.9833 11.6075 7.50005 11.6075C7.0168 11.6075 6.62505 11.9992 6.62505 12.4825C6.62505 12.9657 7.0168 13.3575 7.50005 13.3575Z"
     fill-rule="evenodd"
     clip-rule="evenodd"
     stroke="red"
     stroke-width="2"
     id="path2"
     style="stroke-width:0;stroke-miterlimit:4;stroke-dasharray:none;stroke:none;stroke-opacity:1;fill:#fa1600;fill-opacity:1" />
</svg>
